<?xml version="1.0" encoding="UTF-8"?><svg id="Layer_0_Image" data-name="Layer 0 Image" xmlns="http://www.w3.org/2000/svg" viewBox="0 0 800 600" x="0px" y="0px" width="800px" height="600px" version="1.1" xmlns:xlink="http://www.w3.org/1999/xlink"><title>1</title><path d="M678.931,255.106c0-.159-.367-.307-.717-.581-.143.987-.27,1.858-.408,2.806-1.4-1.088-2.4-.308-2.56.768-.226,1.487-.38,2.556-2.069,3.156-1.173.416-1.655,1.9-3.355,2.105-1.3.154-2.374,1.752-3.665,2.51a7.671,7.671,0,0,1-6.416.638c1.737-.77,3.37-1.313,3.124-3.448-.032-.28.436-.657.729-.928,2.608-2.406,5.2-4.828,7.862-7.177a8.338,8.338,0,0,1,2.622-1.659c2.387-.844,2.315-3.108,2.9-4.909.209-.649-1.059-1.961-.779-2.368,1.524-2.214.676-4.434.384-6.665-.12-.915-.358-1.816-.457-2.733a18.577,18.577,0,0,0-.312-3.674,30.632,30.632,0,0,1-1.661-9.3c-.047-4.458.164-8.882-.678-13.4-.738-3.962-1.369-7.992-2-12-.977-6.2-3.2-11.922-5.245-17.772-1.245-3.565-3.516-6.448-5.148-9.731a61.905,61.905,0,0,0-3.689-6.533c-4.8-7.285-10.842-13.581-16.467-20.2-1.765-2.078-4.275-3.5-6.24-5.435a84.287,84.287,0,0,0-17.562-13.745c-1.807-1.018-3.548-2.166-5.249-3.354-1.611-1.125-3.13-2.38-4.69-3.578-2.731.8-3.571-2.06-5.363-3.028-2.83-1.529-5.376-3.7-8.346-5.1-3.429-1.62-7.273-2.629-10.285-4.805-5.261-3.8-11.519-5.139-17.228-7.755-4.738-2.17-9.642-4.183-14.592-5.993-3.878-1.417-7.33-4-11.756-3.707-.347.023-1.048-.407-1.034-.581.153-1.861-2.091-1.016-2.447-2.236-3.439-.283-6.5-1.9-9.706-2.926-3.229-1.035-6.7-1.031-9.8-2.683a11.637,11.637,0,0,0-5.255-.975c-2.775-.011-5.312-1.7-8.145-1.007-2.216-1.7-4.815-.548-7.192-.98a35.254,35.254,0,0,0-7.2-.968c-6.48.15-12.968-.069-19.447.084-6.515.154-13.056-.693-19.548.847-2.938.7-6.195-.718-9.078,1.017-4.758-.23-9.3,1.28-13.934,1.755-4.38.449-8.5,2.3-12.956,2.04-2.779,1.947-6.232,1.978-9.3,2.617-3.343.695-6.63,1.772-10.062,2.237-3.382.458-6.627,1.889-10.14,1.788-1.674,1.49-3.931,1.175-5.882,1.813-2.118.693-4.6.343-6.655,1.138-2.116.819-4.353.279-6.243.97-2.569.94-5.231,1.06-7.8,1.751-2.716.73-5.487,1.252-8.219,1.928-3.149.78-6.337,1.46-9.41,2.48-8.61,2.859-17.217,5.722-25.769,8.769a277.251,277.251,0,0,0-26.848,10.768c-11.957,5.727-23.718,11.884-34.585,19.648q-9.24,6.6-17.94,13.836c-3.689,3.072-7.081,6.52-10.64,9.762-6.874,6.261-13.248,13.069-19.809,19.629l1.062,1.245c-2.574.287-3.748,2.107-5.2,3.76-3.69,4.214-8.212,7.65-11.4,12.364a54.614,54.614,0,0,1-5.009,5.991c-1.739,1.912-2.217,4.873-4.958,5.938-3.421,7.118-9.678,12.465-12.472,19.975-4.969,5.981-7.142,13.539-11.2,20.058a32,32,0,0,0-3.493,6.113,85,85,0,0,1-4.517,9.975c-3.447,6.855-5.527,14.17-8.3,21.242-1.353,3.449-1.839,7.136-2.862,10.675-.57,1.97-1.613,3.873-1.8,5.867-.271,2.871-1.475,5.518-1.806,8.24-.353,2.892-1.447,5.462-2.08,8.2-.334,1.447-1.2,2.713-1.019,4.36.1.93-1.123,2.4-.771,2.837,1.256,1.548-.1,2-.759,2.824a2.421,2.421,0,0,0-.29.824c-1.066,3.616-1.091,7.407-1.754,11.1-.7,3.885-.1,7.942-.98,11.939-.6,2.714-.028,5.671-.148,8.512a48.853,48.853,0,0,1-.771,5.15l2.86,1.855a18.076,18.076,0,0,0-2.814,1.572,4.066,4.066,0,0,0-1.079,1.8c1.366,1.108-.218,2.063-.1,3.087.15,1.247-.14,2.557.083,3.782.252,1.386-1.049,2.385-.889,3.393.278,1.74-.331,3.372-.469,4.968-.166,1.926,1.711,4.195-.565,5.883,1.774,2.042.682,4.484.891,6.735.175,1.881-.086,3.8.073,5.686.137,1.624.925,3.244.808,4.821-.094,1.263-.83,2.357.655,3.3.258.164.159,1.042.067,1.562-.1.559-.673,1.47-.545,1.565,1.469,1.1.96,2.667.8,3.939-.222,1.821.613,3.238,1.184,4.767.46,1.228,1.43,2.362,1.537,3.592.067.777-.987,1.317-.217,2.682,1.342,2.383,1.3,5.433,3.135,7.7-.591,3.038,1.278,5.485,2.1,8.151.9,2.918,1.663,6.058,3.972,8.286,1.236,1.193,1.947,2.367,1.655,4.087-.078.461-.214,1.185.02,1.384,2.387,2.031,2.616,5.423,4.7,7.541,2.705,2.747,3.8,6.893,7.6,8.652,2.454,4.5,6.841,7.225,10.077,11.006,1.049,1.225,1.89,2.785,3.2,3.584,1.27.777,1.607,1.25,1.338,2.752-.162.9.744,2.827,1.316,2.887,1.848.193,1.138,1.966,2.151,2.689,2.369,1.689,4.479,3.739,6.709,5.624.149.125.43.092,1.01.2.335-.51.755-1.15,1.169-1.779l1.477,1.453-3.7,2.371c2.985.051,5.537-.493,5.853,2.634a12.689,12.689,0,0,1,4.939,3c1.294,1.409,2.517,3.2,4.983,2.229.118-.046.744,1.586,1.056,1.559a7.993,7.993,0,0,0,2.373-.985l2,3.1c.452-.761.794-1.334,1.135-1.908.6,1.279,1.785-.181,1.944.148,1.419,2.933,4.4,3.026,6.9,3.9a12.778,12.778,0,0,0,10.175-.229c.913.378,1.3,2.476,3.163,1.451a2.063,2.063,0,0,0-.263-.426c-.638-.564-1.185-1.289-.319-1.915.666-.48,1.352-.323,1.6.81.148.68.877,1.233,1.558,2.121.268-1.432.428-2.284.736-3.927l3.217,3.219a2.856,2.856,0,0,1,.2-1.04c.884-1.649,2,1.291,2.964-.11.062-.09.623.04.622.049-.1,1.678,1.344,2.011,2.1,1.448,1.758-1.313,2.281.173,3.155.934l3.938-1.758c1.031,1.645,1.988.677,3.039-.022.8-.532,1.65,1.8,2.548.045,1.028,1.524,1.974-.138,2.984-.121,4.561.076,8.968-1.227,13.457-1.72,2.2-.241,2.806-1.377,3.484-2.916,1.868.868,1.868.868,6.772-.363-.079-.824-.153-1.6-.227-2.373a13.992,13.992,0,0,1,1.943.705,3.068,3.068,0,0,1,.8.76c3.2-1.04,6.41-1.87,8.722-4.37.082-.09.281-.1.426-.1a8.516,8.516,0,0,0,2.819-.075c.787-.3,1.247-1.4,2.029-1.778a24.232,24.232,0,0,1,3.667-1.153c.154-1.047.278-1.894.428-2.916l2.741,1.105v-2.8h4.172c2.856-3.006,3.359-7.407,6.834-9.722-.024-1.521,2.419-2.677.676-4.456l-4.022,5.141V490.62c2.376,1.237,2.379-1.94,4.083-1.763a8.551,8.551,0,0,1-.488-1.8,8.7,8.7,0,0,1,.279-1.856l.541.008q.732,2.77,1.463,5.536a3.463,3.463,0,0,0,.659-.559A63.352,63.352,0,0,0,312.4,483.9a47.083,47.083,0,0,1,3.987-6.364c2.107-2.764,3.28-6.22,5.126-9.211.908-1.471.98-2.484-.134-3.5a15.344,15.344,0,0,0,3.1-2.5,61.921,61.921,0,0,0,3.409-5.687c1.118-1.909,2.108-3.908,3.383-5.7A12.606,12.606,0,0,1,338.3,446.2a10.949,10.949,0,0,0,2.09-.673c1.07-.567-.107-1.376-.017-1.614.343-.907,1.031-.528,1.79-.117.83.449,1.855-.524,1.855-1.574-.172-1.312-2.62-1.512-1.6-3.538,1.233.289,2.726,1.162,3.681.759,2.2-.928,1.247,3.227,3.678,1.585-.76-.636-1.809-1.7-.507-2.353,1.716-.865.961,1.541,1.754,1.777,1.45,0,2.989.456,3.9-.106,1.4-.868,2.3-1.148,3.7-.078.485.371,1.661-.111,2.507-.276a2.639,2.639,0,0,0,2.327-2.567,12.854,12.854,0,0,0,1.661,1.841c.933.694,3.025-.321,2.939,1.981a3.227,3.227,0,0,0,1.222.06c.552-.166,1.395-.864,1.51-.745,1.15,1.176,2.622.649,3.912.97.838.209,1.5,1.136,2.315,1.8l.631-2.227c1.881,3.214,5.022,3.745,8.327,5.208l2.81-2.812c-.351.919-.628,1.648-1.009,2.646,1.567,1.169,3.13,2.755,5.02,3.64,2.3,1.075,4.9,1.507,6.519,3.754a1.126,1.126,0,0,0,.831.236c2.19-.076,3.347,2.98,5.875,1.958.062-.025.358.707.635,1,.595.629,1.473,1.83,1.844,1.7,2.533-.9,3.094,1.728,4.654,2.483,1,.483,1.542,1.9,2.173,2.744l3-1.489a22.342,22.342,0,0,0,1.837,2.7c.465.511.776,1.687,2.069.56.59-.514.167,2.183,1.826,1.639,2.788,1.983,6.41,2.64,8.64,5.563.464.608,1.7.57,2.337,1.114,1.306,1.116,3.109.674,4.508,1.846a9.165,9.165,0,0,0,4.868,1.808,4.609,4.609,0,0,1,3.151,1.641,17.565,17.565,0,0,0,11.639,5.128c.786.067,1.981.818,2.25.54,1.24-1.283,1.843-.028,2.761.335a2.909,2.909,0,0,0,2.313,0c2.151-1.463,4.5-.71,6.76-.885,1.5-.117,3.013.231,4.393-.907a3.994,3.994,0,0,1,2.869-.916c1.842.357,1.975-1.822,2.472-1.818,2.154.017,3.6-1.4,5.364-2.1,2.581-1.015,5.036-2.346,7.6-3.4a17.672,17.672,0,0,0,6.69-4.2c2.222-2.483,5.714-2.452,8.1-4.64,1.758-1.613,4.045-2.643,6.149-2.017,1.8-1.788,3.169-3.349,4.758-4.638.743-.6,2.059-.48,2.845-1.055s1.018-1.9,1.809-2.373c6.29-3.736,9.52-10.013,12.888-15.98a136.816,136.816,0,0,0,7.974-17.556c1.336-3.418,1.272-7.322,3.653-10.351.154-.195,0-.618.023-.933.24-3.039,1.2-5.966,1.048-9.1-.076-1.54,1.269-3.085.829-4.816-.214-.843-.862-1.64-.862-2.457s.667-1.612.859-2.458c.46-2.028-.78-3.869-.854-5.772-.286-7.3.075-14.6-.9-21.916-.643-4.816-.166-9.788-.093-14.689.02-1.323-.35-2.644.737-4a3.726,3.726,0,0,0,.079-3.589c-1.5-1.789.668-2.194.639-3.368l1.629,1.178c-.364-2.112-.6-3.5-.873-5.063,2.89-1.508,3.3-5.079,5.351-7.486-.619-1.127,1.286-1.986.332-3.146-.1-.121-.223-.223-.644-.638,2.128.275,3.108-.762,3.922-2.307a16.582,16.582,0,0,1,5.258-6.3c.32-.215.384-.781.627-1.144.841-1.26,1.509-2.742,3.357-2.8-.068-.463-.136-.925-.222-1.512a9.582,9.582,0,0,0,4.355-3.194,13.511,13.511,0,0,1,5.742-4.278,9.2,9.2,0,0,0,2.173-1.667,9.973,9.973,0,0,0-2.621-1.569c-.684-.135-1.493.367-2.353.617-.059-2.614,2.352-2.3,3.344-3.394l1.336,1.756a14.408,14.408,0,0,1,1.021-1.154c.383-.357.831-.644,1.456-1.115a7.2,7.2,0,0,0,.457,1.6,5.89,5.89,0,0,0,1.165,1l4.333-4.775c.076.023.688.415.976.248a26.88,26.88,0,0,0,3.311-2.319c.735-.59,1.245-1.627,2.053-1.918a7.08,7.08,0,0,1,2.636-.079c.895-1.279,1.462-2.091,2.061-2.948.719.86.56,2.567,2.138,1.945,2.783-1.1,5.721-1.528,8.556-2.3,1.572-.431,3.4.223,4.421-.618,1.633-1.351,3.611-.088,4.82-.984,1.662-1.232,3.291-.571,4.917-.8.611-.087,1.427.17,1.826-.143,2.621-2.057,5.972-1.595,8.912-2.526,2.085-.66,4.442-.513,6.27-2.084,2.629.566,4.492-1.372,6.732-2.077.408-.129.744-.744,1.1-.733,3.29.1,5.763-2.282,8.793-2.835,2.023-.369,2.8-2.167,4.315-3.124,5.8-3.673,6.756-3.757,9.945-8.871.131-.209.507-.272.776-.387C678.8,260,679.011,257.614,678.931,255.106ZM183.494,302.485a51.289,51.289,0,0,1-1.771,6.351c-.822,1.9-1.187,3.985-2,5.8-.936,2.1-.965,4.307-1.734,6.383-2.1,5.663-3.055,11.651-4.769,17.428-.126.424-.075,1.157-.309,1.253-1.659.678-.5,2.741-1.474,3.316-1.984,1.178-.569,3.182-1.518,4.659-.739,1.15-.535,2.907-.75,4.393-1.218.493-1.844.08-1.623-1.2.224-1.3.234-2.976,1.043-3.772,1.787-1.76-.2-4.324,1.641-5.879-1.062-1.135-1.517-1.87.628-2.425.679-.175,1.611-2.432,1.252-3.019-1.494-2.448.268-4.624.451-6.8.185-2.193,1.108-4.524,1.645-6.822a61.367,61.367,0,0,1,2.137-6.68c1.233-3.437,1.679-7.142,3.515-10.374-2.017-2.221,1.448-3.313,1.124-5.472-.248-1.657,1.109-3.544,1.717-5.341.656-1.939.919-4.113,1.975-5.792,2.282-3.626,3.671-7.649,5.64-11.4a10.951,10.951,0,0,1,1.37-1.7C189.536,284.8,186.062,293.49,183.494,302.485Zm29.982-18.5c-1.01,3.049-2.143,6.061-3.338,9.043-1.208,3.016-2.042,6.125-2.946,9.231-.923,3.166-2.422,6.331-3.241,9.512-1.249,4.854-2.982,9.552-4.179,14.411-.879,3.566-2.327,6.949-3.12,10.578-.785,3.591-1.483,7.227-2.526,10.777A48.368,48.368,0,0,0,192.1,361.91a23.7,23.7,0,0,1-1.172,6.131,3.466,3.466,0,0,0,.115,2.726c.4,1.006-.474,2.5-.733,3.79-.383,1.911.5,3.838-.825,5.853-.977,1.489.174,3.728-.915,5.772-.83,1.559-.165,3.915-.551,5.926-.306-2.162-1.262-4.206-.844-6.425.008-.044-.234-.17-.372-.2-.294-.064-.6-.09-1.1-.159.28-.632.533-1.222.8-1.8a8.379,8.379,0,0,0,.9-1.986c.09-.552-.446-1.2-.38-1.763.536-4.612,2.007-9.042,2.5-13.7a66.694,66.694,0,0,0,.772-6.735c.011-2.286.753-4.5,1.162-6.678.487-2.59.188-5.26.881-7.663a34.725,34.725,0,0,0,.845-7.228,14,14,0,0,1,.971-4.8c1.9-4.039,2.556-8.424,3.86-12.623,1.4-4.5,3.375-8.781,3.81-13.635.28-3.123,1.672-6.219,2.952-9.159s2.222-6.087,3.685-8.889c1.513-2.9,3.2-5.591,3.763-8.907.146-.86,1.518-1.511,3.128-3C214.583,279.767,214.16,281.919,213.476,283.984Zm155.491,23.033c-.219.618.3,1.5.484,2.259-2.258-.117-1.233,2.024-1.988,2.861-2.443,2.709-3.745,6.252-6.611,8.669-1.237,1.043-1.994,2.638-3.074,3.892a8.341,8.341,0,0,1-1.8,1.225c-1.514-2.72-.248-4.659,1.7-5.646,1.576-.8,1.953-1.714,2.65-3.161a15.29,15.29,0,0,1,3.292-4.647c2.512-2.2,3.431-5.363,5.562-7.719.143-.158-.142-.652-.115-.98a1.133,1.133,0,0,1,.339-.807.848.848,0,0,1,.826.144,3.618,3.618,0,0,1,.341,1.271C370.771,305.727,369.3,306.082,368.967,307.017Zm30.046-9.355c-1.685,1.623-.751,4.091-2.837,6.026H394.4c.106,1.287.193,2.351.305,3.717a4.66,4.66,0,0,1-1.62.94,7.5,7.5,0,0,1-2.444-.335c-.866.84.878,3.016-.943,3.366-2.22.427-.387,2.459-1.771,3.324-1.066.665-1.207-.083-1.74-.342-.553,3.374-.553,3.374-3.681,7.485-1.2-1.309-1.2-1.305-.017-2.838a3.2,3.2,0,0,0,.427-.769c1.581-4.014,1.579-4.015,4.179-6.247l-3.016-.784c-.823-1.847.784-3.006,1.265-4.483,1.831.493,1.027-1.593,1.938-1.981a5.364,5.364,0,0,1,1.95-.635c.221,0,.439,1,.819,1.931,1.2-1.657,2.256-3.122,3.982-5.513l-3.355,1.3v-2.289c1.52-.659,3.081-1.485,3.682-3.463.105-.346.911-.479,1.393-.71l.7,1.684,2.361-.942C398.916,296.829,399.2,297.485,399.013,297.662Z"/></svg>